<svg xmlns="http://www.w3.org/2000/svg" xmlns:xlink="http://www.w3.org/1999/xlink"><symbol viewBox="0 0 24 24" id="icon-facebook" xmlns="http://www.w3.org/2000/svg"><path fill="currentColor" d="M9.198 21.5h4v-8.01h3.604l.396-3.98h-4V7.5a1 1 0 0 1 1-1h3v-4h-3a5 5 0 0 0-5 5v2.01h-2l-.396 3.98h2.396z"/></symbol><symbol viewBox="0 0 256 256" id="icon-insta" xmlns="http://www.w3.org/2000/svg"><path fill="currentColor" d="M128 80a48 48 0 1 0 48 48 48.05 48.05 0 0 0-48-48m0 72a24 24 0 1 1 24-24 24 24 0 0 1-24 24m48-132H80a60.07 60.07 0 0 0-60 60v96a60.07 60.07 0 0 0 60 60h96a60.07 60.07 0 0 0 60-60V80a60.07 60.07 0 0 0-60-60m36 156a36 36 0 0 1-36 36H80a36 36 0 0 1-36-36V80a36 36 0 0 1 36-36h96a36 36 0 0 1 36 36ZM196 76a16 16 0 1 1-16-16 16 16 0 0 1 16 16"/></symbol><symbol viewBox="0 0 24 24" id="icon-twitter" xmlns="http://www.w3.org/2000/svg"><path fill="currentColor" d="M22.46 6c-.77.35-1.6.58-2.46.69.88-.53 1.56-1.37 1.88-2.38-.83.5-1.75.85-2.72 1.05C18.37 4.5 17.26 4 16 4c-2.35 0-4.27 1.92-4.27 4.29 0 .34.04.67.11.98C8.28 9.09 5.11 7.38 3 4.79c-.37.63-.58 1.37-.58 2.15 0 1.49.75 2.81 1.91 3.56-.71 0-1.37-.2-1.95-.5v.03c0 2.08 1.48 3.82 3.44 4.21a4.22 4.22 0 0 1-1.93.07 4.28 4.28 0 0 0 4 2.98 8.521 8.521 0 0 1-5.33 1.84c-.34 0-.68-.02-1.02-.06C3.44 20.29 5.7 21 8.12 21 16 21 20.33 14.46 20.33 8.79c0-.19 0-.37-.01-.56.84-.6 1.56-1.36 2.14-2.23"/></symbol></svg>