<svg xmlns="http://www.w3.org/2000/svg" xmlns:xlink="http://www.w3.org/1999/xlink"><symbol fill="none" viewBox="0 0 11 6" id="icon-arrow-bottom" xmlns="http://www.w3.org/2000/svg"><path d="m5.28 5.05 5.47-5.16H-.19l5.47 5.16Z" fill="#C05866" fill-rule="evenodd"/></symbol><symbol fill="none" viewBox="0 0 18 17" id="icon-clock" xmlns="http://www.w3.org/2000/svg"><path d="M8.5 16.11c-4.7 0-8.5-3.8-8.5-8.5a8.5 8.5 0 1 1 17 0 8.5 8.5 0 0 1-8.5 8.5Zm-.8-8.5c0 .27.13.52.35.64l3.19 2.12c.37.27.86.18 1.08-.19a.78.78 0 0 0-.19-1.11L9.29 7.19V3.1a.8.8 0 0 0-.82-.8c-.42 0-.8.36-.8.8l.03 4.51Z" fill="#B24C5A"/></symbol><symbol fill="none" viewBox="0 0 30 31" id="icon-close" xmlns="http://www.w3.org/2000/svg"><rect x="4.954" y="-.203" rx="4" width="35" height="8" transform="rotate(45 4.954 -.203)" fill="currentColor"/><rect x="-.703" y="24.546" rx="4" width="35" height="8" transform="rotate(-45 -.703 24.546)" fill="currentColor"/></symbol><symbol viewBox="0 0 24 24" id="icon-facebook" xmlns="http://www.w3.org/2000/svg"><path fill="currentColor" d="M9.198 21.5h4v-8.01h3.604l.396-3.98h-4V7.5a1 1 0 0 1 1-1h3v-4h-3a5 5 0 0 0-5 5v2.01h-2l-.396 3.98h2.396z"/></symbol><symbol viewBox="0 0 256 256" id="icon-insta" xmlns="http://www.w3.org/2000/svg"><path fill="currentColor" d="M128 80a48 48 0 1 0 48 48 48.05 48.05 0 0 0-48-48m0 72a24 24 0 1 1 24-24 24 24 0 0 1-24 24m48-132H80a60.07 60.07 0 0 0-60 60v96a60.07 60.07 0 0 0 60 60h96a60.07 60.07 0 0 0 60-60V80a60.07 60.07 0 0 0-60-60m36 156a36 36 0 0 1-36 36H80a36 36 0 0 1-36-36V80a36 36 0 0 1 36-36h96a36 36 0 0 1 36 36ZM196 76a16 16 0 1 1-16-16 16 16 0 0 1 16 16"/></symbol><symbol fill="none" viewBox="0 0 17 17" id="icon-label" xmlns="http://www.w3.org/2000/svg"><path d="M-.3.17C-.3-.41.17-.89.76-.89h7.09c.48 0 1.16.28 1.5.62l6.73 6.73c.83.83.83 2.18 0 3.01l-6.03 6.02c-.83.83-2.18.83-3.01 0L.32 8.77C-.02 8.43-.3 7.75-.3 7.26V.17Zm3.03 3.19c0 .67.55 1.22 1.22 1.22.67 0 1.21-.55 1.21-1.22 0-.67-.54-1.21-1.21-1.21-.67 0-1.22.54-1.22 1.21Z" fill="#B24C5A"/></symbol><symbol viewBox="0 0 24 24" id="icon-twitter" xmlns="http://www.w3.org/2000/svg"><path fill="currentColor" d="M22.46 6c-.77.35-1.6.58-2.46.69.88-.53 1.56-1.37 1.88-2.38-.83.5-1.75.85-2.72 1.05C18.37 4.5 17.26 4 16 4c-2.35 0-4.27 1.92-4.27 4.29 0 .34.04.67.11.98C8.28 9.09 5.11 7.38 3 4.79c-.37.63-.58 1.37-.58 2.15 0 1.49.75 2.81 1.91 3.56-.71 0-1.37-.2-1.95-.5v.03c0 2.08 1.48 3.82 3.44 4.21a4.22 4.22 0 0 1-1.93.07 4.28 4.28 0 0 0 4 2.98 8.521 8.521 0 0 1-5.33 1.84c-.34 0-.68-.02-1.02-.06C3.44 20.29 5.7 21 8.12 21 16 21 20.33 14.46 20.33 8.79c0-.19 0-.37-.01-.56.84-.6 1.56-1.36 2.14-2.23"/></symbol></svg>